HIERARCHY
ROOT Pelvis
{
	OFFSET 0.000000 0.000000 0.000000
	CHANNELS 6 Xposition Yposition Zposition Xrotation Yrotation Zrotation
	JOINT LeftUpLeg_virtual
	{
		OFFSET 0.000000 0.000000 0.000000
		CHANNELS 3 Xrotation Yrotation Zrotation
		JOINT LeftUpLeg
		{
			OFFSET 18.735201 -5.666702 -4.541200
			CHANNELS 3 Xrotation Yrotation Zrotation
			JOINT LeftLeg
			{
				OFFSET -0.021200 -31.938179 0.493100
				CHANNELS 3 Xrotation Yrotation Zrotation
				JOINT LeftFoot
				{
					OFFSET 0.021200 -31.938179 -4.336299
					CHANNELS 3 Xrotation Yrotation Zrotation
					JOINT LeftToeBase
					{
						OFFSET 0.943001 -26.722000 15.023500
						CHANNELS 3 Xrotation Yrotation Zrotation
						End Site
						{
							OFFSET 0 0 0
						}
					}
				}
			}
		}
	}
	JOINT RightUpLeg_virtual
	{
		OFFSET 0.000000 0.000000 0.000000
		CHANNELS 3 Xrotation Yrotation Zrotation
		JOINT RightUpLeg
		{
			OFFSET -18.735201 -5.666702 -4.541200
			CHANNELS 3 Xrotation Yrotation Zrotation
			JOINT RightLeg
			{
				OFFSET 0.018946 -31.938133 0.493100
				CHANNELS 3 Xrotation Yrotation Zrotation
				JOINT RightFoot
				{
					OFFSET -0.018946 -31.938126 -4.336299
					CHANNELS 3 Xrotation Yrotation Zrotation
					JOINT RightToeBase
					{
						OFFSET -0.943001 -26.722004 15.023500
						CHANNELS 3 Xrotation Yrotation Zrotation
						End Site
						{
							OFFSET 0 0 0
						}
					}
				}
			}
		}
	}
	JOINT Hips_virtual
	{
		OFFSET 0.000000 0.000000 0.000000
		CHANNELS 3 Xrotation Yrotation Zrotation
		JOINT Hips
		{
			OFFSET -0.000000 -0.000000 -0.000000
			CHANNELS 3 Xrotation Yrotation Zrotation
			JOINT Spine
			{
				OFFSET 0.000000 10.199997 -0.299500
				CHANNELS 3 Xrotation Yrotation Zrotation
				JOINT Spine1
				{
					OFFSET 0.000000 11.900002 -1.516600
					CHANNELS 3 Xrotation Yrotation Zrotation
					JOINT Spine2
					{
						OFFSET 0.000000 13.600006 -2.842500
						CHANNELS 3 Xrotation Yrotation Zrotation
						JOINT Neck_virtual
						{
							OFFSET 0.000000 0.000000 0.000000
							CHANNELS 3 Xrotation Yrotation Zrotation
							JOINT Neck
							{
								OFFSET 0.000000 9.624100 -2.890100
								CHANNELS 3 Xrotation Yrotation Zrotation
								JOINT Head
								{
									OFFSET 0.000000 14.068802 -1.351900
									CHANNELS 3 Xrotation Yrotation Zrotation
									End Site
									{
										OFFSET 0 0 0
									}
								}
							}
						}
						JOINT LeftShoulder_virtual
						{
							OFFSET 0.000000 0.000000 0.000000
							CHANNELS 3 Xrotation Yrotation Zrotation
							JOINT LeftShoulder
							{
								OFFSET 15.263000 10.923401 -0.547700
								CHANNELS 3 Xrotation Yrotation Zrotation
								JOINT LeftArm
								{
									OFFSET 25.438599 -2.830597 -13.032500
									CHANNELS 3 Xrotation Yrotation Zrotation
									JOINT LeftForeArm
									{
										OFFSET 29.960503 0.000000 0.000000
										CHANNELS 3 Xrotation Yrotation Zrotation
										JOINT LeftHand
										{
											OFFSET 27.849251 0.000000 0.000000
											CHANNELS 3 Xrotation Yrotation Zrotation
											End Site
											{
												OFFSET 0 0 0
											}
										}
									}
								}
							}
						}
						JOINT RightShoulder_virtual
						{
							OFFSET 0.000000 0.000000 0.000000
							CHANNELS 3 Xrotation Yrotation Zrotation
							JOINT RightShoulder
							{
								OFFSET -15.263000 10.923401 -0.547700
								CHANNELS 3 Xrotation Yrotation Zrotation
								JOINT RightArm
								{
									OFFSET -25.438599 -2.830597 -13.032500
									CHANNELS 3 Xrotation Yrotation Zrotation
									JOINT RightForeArm
									{
										OFFSET -29.960503 0.000000 0.000000
										CHANNELS 3 Xrotation Yrotation Zrotation
										JOINT RightHand
										{
											OFFSET -27.849251 0.000000 0.000000
											CHANNELS 3 Xrotation Yrotation Zrotation
											End Site
											{
												OFFSET 0 0 0
											}
										}
									}
								}
							}
						}
					}
				}
			}
		}
	}
}
MOTION
Frames: 13
Frame Time: 0.03333333
-10.037646 92.379845 13.573112 0.000000 0.000000 0.000000 -5.579184 -27.150591 -1.265853 -1.455333 22.627242 11.225305 15.558310 1.801030 -8.229876 -8.762438 -1.266093 -1.702618 0.000000 0.000000 0.000000 -6.039208 -25.785176 -1.334231 -11.831698 -4.423638 -12.020664 19.420014 -9.553491 1.213838 5.511926 -3.669269 3.376870 0.000000 0.000000 0.000000 -6.095353 -25.933810 -1.197005 -0.720308 -0.036100 -0.109172 5.426299 0.360464 -0.938376 6.496808 -0.743813 -0.170291 0.000000 0.000000 0.000000 4.593744 4.065037 -1.819988 -2.721580 1.798737 1.672658 0.000000 0.000000 0.000000 6.246450 2.894596 -2.695297 -8.149834 -20.908249 1.137961 14.828424 16.989443 -76.116352 -13.755642 -25.162195 -6.290503 0.000000 0.000000 0.000000 2.772812 4.717073 -1.474037 1.614470 4.532604 -3.614956 -12.668841 -8.556506 74.017811 -1.795797 35.141528 26.685208 0.000000 0.000000 0.000000 
-10.068766 92.387672 13.386772 0.000000 0.000000 0.000000 -5.591557 -27.188797 -1.238517 -1.666742 22.575998 11.383157 15.754936 1.552248 -8.163732 -8.782016 -1.270194 -1.989521 0.000000 0.000000 0.000000 -6.088464 -25.887506 -1.323275 -11.729071 -4.473967 -11.805307 19.316916 -9.635829 1.295502 4.456260 -3.895365 3.373655 0.000000 0.000000 0.000000 -6.078161 -25.939284 -1.171509 -0.727689 -0.024366 -0.122346 5.530027 0.366799 -0.967522 6.493785 -0.743823 -0.236917 0.000000 0.000000 0.000000 4.477841 4.063192 -1.812856 -2.681057 1.802235 1.706529 0.000000 0.000000 0.000000 6.269292 2.866966 -2.755125 -8.167558 -20.679094 1.138612 14.763613 17.073482 -75.831602 -13.549387 -24.819692 -6.261931 0.000000 0.000000 0.000000 2.851113 4.726468 -1.458228 1.581608 4.568203 -3.492723 -12.585691 -8.474528 73.834133 -1.900409 35.524722 26.913899 0.000000 0.000000 0.000000 
-10.095273 92.370605 13.100533 0.000000 0.000000 0.000000 -5.655913 -27.222877 -1.279221 -2.683807 22.762579 11.952084 16.780349 1.248618 -8.031785 -8.456619 -1.258020 -2.097517 0.000000 0.000000 0.000000 -6.117433 -26.037656 -1.377188 -11.754363 -4.591890 -11.560520 19.292759 -9.508615 1.408505 3.364738 -3.964848 4.065833 0.000000 0.000000 0.000000 -6.007851 -26.029286 -1.195124 -0.731500 -0.017789 -0.127585 5.678684 0.401269 -0.997715 6.394244 -0.741745 -0.294848 0.000000 0.000000 0.000000 4.276394 4.046556 -1.808414 -2.683368 1.767252 1.765879 0.000000 0.000000 0.000000 6.178227 2.843667 -2.818608 -8.219327 -20.303871 1.004883 14.719374 17.120002 -75.118038 -13.229738 -24.476972 -6.335519 0.000000 0.000000 0.000000 2.869620 4.722917 -1.433215 1.507379 4.524273 -3.257939 -12.403754 -8.036033 73.421808 -2.077592 36.047840 27.280158 0.000000 0.000000 0.000000 
-10.116363 92.327385 12.766994 0.000000 0.000000 0.000000 -5.739711 -27.290159 -1.372643 -4.451024 23.180387 12.850873 18.641695 0.939634 -7.881411 -7.887718 -1.231745 -1.984875 0.000000 0.000000 0.000000 -6.133015 -26.232699 -1.472476 -12.072178 -4.617283 -11.340790 19.501628 -9.121070 1.453424 3.044462 -3.912287 5.225238 0.000000 0.000000 0.000000 -5.898704 -26.196760 -1.246499 -0.731374 -0.018291 -0.122992 5.858400 0.460366 -1.062252 6.232359 -0.734119 -0.327743 0.000000 0.000000 0.000000 4.047084 4.019117 -1.798827 -2.714106 1.698132 1.838169 0.000000 0.000000 0.000000 5.976270 2.827551 -2.870048 -8.284935 -19.837057 0.779513 14.658409 17.116208 -74.070096 -12.869390 -24.280293 -6.552871 0.000000 0.000000 0.000000 2.824828 4.712314 -1.391265 1.399337 4.366662 -2.927104 -12.171167 -7.355414 72.821182 -2.268074 36.636838 27.721769 0.000000 0.000000 0.000000 
-10.119152 92.229065 12.389759 0.000000 0.000000 0.000000 -5.783913 -27.465335 -1.494360 -6.572936 23.709926 13.866212 20.991321 0.588947 -7.699865 -7.457933 -1.222795 -1.716634 0.000000 0.000000 0.000000 -6.116624 -26.496571 -1.577271 -12.550937 -4.613288 -11.024784 19.781881 -8.688994 1.384818 3.182343 -4.050930 6.077562 0.000000 0.000000 0.000000 -5.780610 -26.462916 -1.316280 -0.725442 -0.017499 -0.117163 6.055292 0.544533 -1.195679 6.057992 -0.708602 -0.330148 0.000000 0.000000 0.000000 3.829026 3.996821 -1.771286 -2.751136 1.604335 1.911179 0.000000 0.000000 0.000000 5.704460 2.824614 -2.891539 -8.334701 -19.348970 0.509648 14.566896 17.061806 -72.855162 -12.543074 -24.291827 -6.943409 0.000000 0.000000 0.000000 2.725169 4.707655 -1.330114 1.266754 4.097514 -2.518987 -11.939185 -6.599496 72.100419 -2.417343 37.217284 28.172833 0.000000 0.000000 0.000000 
-10.059108 92.106895 12.009960 0.000000 0.000000 0.000000 -5.751729 -27.788939 -1.601464 -8.377323 24.315371 14.697249 23.103981 0.198864 -7.496662 -7.478627 -1.237760 -1.480561 0.000000 0.000000 0.000000 -6.047367 -26.830446 -1.678590 -13.079848 -4.729996 -10.577654 19.769955 -8.426653 1.212180 3.181948 -4.573242 6.127573 0.000000 0.000000 0.000000 -5.678151 -26.877334 -1.396785 -0.718814 -0.015811 -0.110606 6.270904 0.652667 -1.405550 5.904463 -0.650168 -0.296069 0.000000 0.000000 0.000000 3.651814 4.000152 -1.709812 -2.773874 1.492277 1.972271 0.000000 0.000000 0.000000 5.417190 2.842521 -2.870362 -8.348658 -18.883851 0.231469 14.403737 16.967566 -71.650453 -12.319003 -24.468080 -7.500844 0.000000 0.000000 0.000000 2.600808 4.714886 -1.242984 1.126983 3.725334 -2.064753 -11.741913 -5.958086 71.299177 -2.480019 37.683001 28.564722 0.000000 0.000000 0.000000 
-9.904404 92.007507 11.641472 0.000000 0.000000 0.000000 -5.668855 -28.343736 -1.677111 -9.398340 25.073474 15.129837 24.243231 -0.035705 -7.331471 -7.943933 -1.198420 -1.317065 0.000000 0.000000 0.000000 -5.963443 -27.325850 -1.772754 -13.672299 -4.944992 -10.115542 19.325363 -8.203615 0.991272 3.433015 -5.166421 5.667811 0.000000 0.000000 0.000000 -5.637050 -27.497192 -1.482560 -0.713263 -0.013532 -0.107343 6.545881 0.788621 -1.704157 5.781854 -0.540053 -0.216539 0.000000 0.000000 0.000000 3.514938 4.037462 -1.603191 -2.768548 1.369016 2.010631 0.000000 0.000000 0.000000 5.143694 2.892401 -2.788192 -8.302577 -18.453752 0.004977 14.119932 16.904880 -70.601432 -12.218104 -24.661375 -8.181191 0.000000 0.000000 0.000000 2.471269 4.735241 -1.121054 0.999045 3.275372 -1.572403 -11.544772 -5.498439 70.399340 -2.457534 38.007117 28.880062 0.000000 0.000000 0.000000 
-9.641422 91.929581 11.255177 0.000000 0.000000 0.000000 -5.579476 -29.143010 -1.733001 -9.606562 26.020162 15.087548 24.268439 0.075161 -7.238559 -8.474564 -0.848563 -0.995462 0.000000 0.000000 0.000000 -5.925578 -28.052241 -1.870422 -14.676386 -5.133047 -9.781390 18.854648 -7.695666 0.783759 4.873130 -5.357319 5.201875 0.000000 0.000000 0.000000 -5.686859 -28.326418 -1.598325 -0.710319 -0.009177 -0.097755 6.911062 0.951492 -2.106419 5.682238 -0.377950 -0.098753 0.000000 0.000000 0.000000 3.403176 4.099173 -1.447838 -2.731955 1.245768 2.016015 0.000000 0.000000 0.000000 4.902522 2.979314 -2.637346 -8.177798 -18.049055 -0.139158 13.725240 16.928226 -69.812866 -12.255739 -24.714208 -8.931573 0.000000 0.000000 0.000000 2.338462 4.762577 -0.959684 0.908156 2.796555 -1.087010 -11.296386 -5.198256 69.405923 -2.362334 38.209082 29.118179 0.000000 0.000000 0.000000 
-9.252337 91.825623 10.817554 0.000000 0.000000 0.000000 -5.535461 -30.225527 -1.801406 -9.186640 27.061554 14.594740 23.528781 0.558311 -7.198829 -8.768778 -0.076222 -0.341249 0.000000 0.000000 0.000000 -6.013385 -29.019346 -1.993931 -16.315650 -5.082179 -9.692243 18.788705 -6.755166 0.599718 7.875843 -5.000069 4.882894 0.000000 0.000000 0.000000 -5.845976 -29.360190 -1.764015 -0.712137 -0.000980 -0.084459 7.389629 1.123494 -2.602962 5.595883 -0.188144 0.064462 0.000000 0.000000 0.000000 3.306675 4.167174 -1.251522 -2.668467 1.121963 1.983657 0.000000 0.000000 0.000000 4.693785 3.087952 -2.416293 -7.967455 -17.685211 -0.191467 13.192661 17.093875 -69.249642 -12.431236 -24.594186 -9.705555 0.000000 0.000000 0.000000 2.200154 4.783456 -0.750546 0.871108 2.337330 -0.665087 -10.974624 -4.904722 68.410020 -2.208020 38.310026 29.250032 0.000000 0.000000 0.000000 
-8.781609 91.687370 10.283634 0.000000 0.000000 0.000000 -5.608526 -31.618759 -1.944652 -8.335437 28.007679 13.761270 22.327943 1.296997 -7.176108 -8.846431 0.915106 0.531841 0.000000 0.000000 0.000000 -6.234966 -30.323485 -2.180555 -18.299602 -4.746943 -9.699630 19.050014 -5.524986 0.456857 11.684196 -4.247106 4.606343 0.000000 0.000000 0.000000 -6.094174 -30.591007 -2.000180 -0.714890 0.013626 -0.075422 7.981543 1.263970 -3.175757 5.507879 -0.004815 0.284179 0.000000 0.000000 0.000000 3.212136 4.224642 -1.013106 -2.585090 0.996859 1.922847 0.000000 0.000000 0.000000 4.497102 3.196594 -2.124301 -7.673049 -17.364667 -0.137473 12.534218 17.405513 -68.784178 -12.704229 -24.377112 -10.474465 0.000000 0.000000 0.000000 2.053859 4.784681 -0.494398 0.877734 1.935226 -0.320289 -10.596710 -4.393802 67.522171 -2.017382 38.361375 29.272220 0.000000 0.000000 0.000000 
-8.248342 91.562630 9.622517 0.000000 0.000000 0.000000 -5.812602 -33.328591 -2.210739 -7.265114 28.707623 12.784449 20.931104 2.056461 -7.123965 -8.831186 1.836017 1.322672 0.000000 0.000000 0.000000 -6.548854 -32.010057 -2.473893 -20.219764 -4.185675 -9.591312 19.444449 -4.288927 0.335687 14.937878 -3.365725 4.320396 0.000000 0.000000 0.000000 -6.361487 -32.045557 -2.317471 -0.717077 0.024481 -0.075765 8.636259 1.345508 -3.795315 5.380413 0.135659 0.570371 0.000000 0.000000 0.000000 3.085810 4.258380 -0.726875 -2.483473 0.867936 1.850599 0.000000 0.000000 0.000000 4.301771 3.278291 -1.764360 -7.312080 -17.079276 -0.004157 11.839235 17.751392 -68.301106 -13.024448 -24.147869 -11.215253 0.000000 0.000000 0.000000 1.891867 4.763176 -0.191189 0.927316 1.647591 -0.052290 -10.122370 -3.561724 66.816647 -1.809371 38.448170 29.181389 0.000000 0.000000 0.000000 
-7.677877 91.522003 8.882221 0.000000 0.000000 0.000000 -6.091397 -35.283541 -2.614974 -6.284172 29.161629 11.954230 19.637146 2.685504 -7.041800 -8.553885 2.557841 1.875441 0.000000 0.000000 0.000000 -6.859270 -34.011822 -2.892519 -21.620405 -3.560645 -9.264336 19.427643 -3.219849 0.176816 17.243060 -2.404748 4.232179 0.000000 0.000000 0.000000 -6.543680 -33.724998 -2.680511 -0.720269 0.027435 -0.080111 9.275304 1.375553 -4.421385 5.187328 0.231200 0.921638 0.000000 0.000000 0.000000 2.908847 4.259302 -0.389730 -2.363634 0.745521 1.780507 0.000000 0.000000 0.000000 4.075923 3.320914 -1.339802 -6.915041 -16.792843 0.145207 11.181516 18.034303 -67.716538 -13.328405 -23.984477 -11.912999 0.000000 0.000000 0.000000 1.700121 4.717867 0.151303 1.007885 1.467415 0.186442 -9.473989 -2.506724 66.253252 -1.641456 38.694162 29.003948 0.000000 0.000000 0.000000 
-7.084337 91.635979 8.117245 0.000000 0.000000 0.000000 -6.357543 -37.358034 -3.147778 -5.714343 29.538557 11.542810 18.634166 3.307835 -6.978231 -7.738465 3.150793 2.200453 0.000000 0.000000 0.000000 -7.011908 -36.193285 -3.419132 -22.378480 -3.084936 -8.669408 18.985458 -2.362942 -0.078026 18.893821 -1.286417 4.592386 0.000000 0.000000 0.000000 -6.568090 -35.552139 -3.059506 -0.726272 0.022208 -0.082483 9.790909 1.387902 -4.988235 4.907411 0.285574 1.325142 0.000000 0.000000 0.000000 2.660683 4.226838 -0.002937 -2.229137 0.634134 1.727002 0.000000 0.000000 0.000000 3.788863 3.332937 -0.868412 -6.510486 -16.425457 0.265084 10.658349 18.146457 -67.056448 -13.533718 -23.856847 -12.537666 0.000000 0.000000 0.000000 1.462881 4.645939 0.518686 1.101567 1.384245 0.453344 -8.536874 -1.373849 65.741964 -1.542175 39.180656 28.782202 0.000000 0.000000 0.000000 
